<?xml version="1.0" encoding="UTF-8"?>
<svg version="1.1" xmlns="http://www.w3.org/2000/svg" width="283" height="299">
<path d="M0 0 C93.39 0 186.78 0 283 0 C283 98.67 283 197.34 283 299 C189.61 299 96.22 299 0 299 C0 200.33 0 101.66 0 0 Z " fill="#FEFEFD" transform="translate(0,0)"/>
<path d="M0 0 C3.84246832 1.53698733 7.07655624 3.08643671 10.62890625 5.1328125 C11.73169922 5.76574219 12.83449219 6.39867187 13.97070312 7.05078125 C15.16798369 7.74216164 16.36524888 8.43356863 17.5625 9.125 C18.81555702 9.84539692 20.06881588 10.56544286 21.32226562 11.28515625 C23.92542597 12.78021707 26.52771236 14.27678254 29.12939453 15.77441406 C35.07817366 19.19710101 41.03985282 22.5971595 47 26 C49.30209205 27.31639101 51.60417533 28.63279736 53.90625 29.94921875 C58.22247989 32.41677983 62.54226716 34.87797312 66.86547852 37.33328247 C69.45439456 38.80390532 72.04218159 40.27650843 74.62988281 41.74926758 C75.86434524 42.4511062 77.09936077 43.15197297 78.33496094 43.85180664 C80.0476194 44.82192209 81.75822953 45.79565101 83.46875 46.76953125 C84.44263672 47.32229736 85.41652344 47.87506348 86.41992188 48.44458008 C91.08498622 51.25694996 91.08498622 51.25694996 93 53 C93.48101807 55.18302917 93.48101807 55.18302917 93.45410156 57.74682617 C93.45379944 58.70759567 93.45349731 59.66836517 93.45318604 60.6582489 C93.43254089 61.69270645 93.41189575 62.727164 93.390625 63.79296875 C93.38496521 64.85413406 93.37930542 65.91529938 93.37347412 67.00862122 C93.35106143 70.40203735 93.30085449 73.79440235 93.25 77.1875 C93.2299414 79.48631289 93.21168952 81.78514231 93.1953125 84.08398438 C93.1511807 89.72301564 93.08421972 95.36143273 93 101 C89.20902916 99.5854522 85.81143117 97.83942862 82.31640625 95.8046875 C81.23037109 95.1748999 80.14433594 94.5451123 79.02539062 93.89624023 C77.87106261 93.22254684 76.7167663 92.54879912 75.5625 91.875 C74.38106638 91.18852708 73.19942498 90.50241163 72.01757812 89.81665039 C69.70786561 88.47633664 67.3988754 87.13481043 65.09033203 85.79248047 C60.45169593 83.1019396 55.79059197 80.45200659 51.125 77.80859375 C46.71897167 75.25860485 42.36526472 72.61915883 38 70 C37.67 77.92 37.34 85.84 37 94 C41.32829915 95.44897891 41.32829915 95.44897891 45.70068359 96.75390625 C53.41086046 99.06486605 60.54849633 102.02239446 65 109 C68.61377177 122.16894571 66.282436 137.59540499 65 151 C61.29102741 149.60582632 57.92161688 147.92181521 54.48046875 145.9609375 C53.55903076 145.43806152 52.63759277 144.91518555 51.68823242 144.37646484 C50.53299072 143.71598145 49.37774902 143.05549805 48.1875 142.375 C44.495625 140.27125 40.80375 138.1675 37 136 C37 146.56 37 157.12 37 168 C40.96 166.02 44.92 164.04 49 162 C61.46700891 157.64644133 74.25941565 159.81177355 86.0625 165.125 C98.02248708 171.50365977 106.04337679 181.66725693 110.4375 194.375 C114.09202355 207.86495866 112.0573628 221.1253527 105.16796875 233.21484375 C97.8808539 243.69276629 87.82532084 252.33791908 75 255 C57.46737347 256.34980931 44.70855467 254.6340932 31 243 C23.68294706 236.2587612 18.07127568 226.99026854 17 217 C16.93040318 214.32687709 16.95387831 211.67505785 17 209 C15.94039062 209.6496875 14.88078125 210.299375 13.7890625 210.96875 C12.40118225 211.81273123 11.01315371 212.65646864 9.625 213.5 C8.57699219 214.14388672 8.57699219 214.14388672 7.5078125 214.80078125 C2.2265625 218 2.2265625 218 0 218 C0 146.06 0 74.12 0 0 Z " fill="#FE9200" transform="translate(143,18)"/>
<path d="M0 0 C0 71.94 0 143.88 0 218 C-3.95851347 216.41659461 -7.30218604 214.78144201 -10.96484375 212.6640625 C-12.09470703 212.01179687 -13.22457031 211.35953125 -14.38867188 210.6875 C-15.2635022 210.17896484 -15.2635022 210.17896484 -16.15600586 209.66015625 C-17.926559 208.63135738 -19.70030897 207.60825727 -21.47460938 206.5859375 C-27.91145542 202.85953546 -27.91145542 202.85953546 -31 201 C-32.55354439 200.32905807 -32.55354439 200.32905807 -34.13847351 199.64456177 C-37.42979669 196.60279107 -37.46287828 195.97831073 -37.75949097 191.6975708 C-37.7947 189.42788095 -37.7965943 187.15753509 -37.77294922 184.88769531 C-37.78889381 183.02876396 -37.78889381 183.02876396 -37.80516052 181.13227844 C-37.82844722 177.73731469 -37.82524528 174.34431051 -37.81029272 170.94942951 C-37.80091541 167.40057045 -37.82536066 163.85194855 -37.84622192 160.30316162 C-37.88057436 153.58479583 -37.8844979 146.86677035 -37.87749684 140.14833426 C-37.87100666 132.49894866 -37.89842681 124.84980231 -37.92869925 117.20048761 C-37.99020538 101.46695309 -38.00911441 85.73366166 -38 70 C-38.6858936 70.40012676 -39.3717872 70.80025352 -40.07846546 71.21250534 C-43.2219781 73.04630966 -46.36550554 74.88008861 -49.5090332 76.71386719 C-50.58790047 77.34324188 -51.66676773 77.97261658 -52.77832794 78.62106323 C-69.09127391 88.13715875 -69.09127391 88.13715875 -76.1875 92.25 C-77.27740234 92.88550781 -78.36730469 93.52101563 -79.49023438 94.17578125 C-80.53888672 94.78292969 -81.58753906 95.39007813 -82.66796875 96.015625 C-84.03344849 96.80888184 -84.03344849 96.80888184 -85.42651367 97.61816406 C-87.90182662 98.94728571 -90.37184168 100.01329313 -93 101 C-93.22858025 94.27459206 -93.38595529 87.55018758 -93.49438477 80.82177734 C-93.53959016 78.53428726 -93.60096912 76.24705645 -93.67895508 73.96044922 C-93.78840739 70.66829538 -93.83922209 67.37958124 -93.87890625 64.0859375 C-93.92535782 63.06696381 -93.97180939 62.04799011 -94.01966858 60.99813843 C-94.02458544 54.0505067 -94.02458544 54.0505067 -91.14537048 51.09844971 C-88.82959238 49.52701422 -86.50780022 48.23817172 -84 47 C-82.97060303 46.39414063 -81.94120605 45.78828125 -80.88061523 45.1640625 C-79.94934814 44.65617187 -79.01808105 44.14828125 -78.05859375 43.625 C-76.99302246 43.03968506 -75.92745117 42.45437012 -74.82958984 41.85131836 C-73.7102002 41.2403833 -72.59081055 40.62944824 -71.4375 40 C-69.02013024 38.67158827 -66.60521879 37.33876965 -64.19140625 36.00390625 C-63.28171082 35.5008773 -63.28171082 35.5008773 -62.3536377 34.98768616 C-56.47506327 31.72675132 -50.66923789 28.34581839 -44.875 24.9375 C-33.52006109 18.26181505 -22.04350799 11.81588544 -10.53076172 5.41699219 C-8.2918706 4.1634205 -6.06758053 2.88829534 -3.84765625 1.6015625 C-1 0 -1 0 0 0 Z " fill="#FF8100" transform="translate(134,18)"/>
<path d="M0 0 C11.31400645 8.42604685 18.22006685 19.14939187 21 33 C22.62013025 45.33438785 19.26622972 57.88420816 12.1875 68.0625 C4.90215023 77.12509525 -4.32273888 84.57621549 -16 87 C-33.53262653 88.34980931 -46.29144533 86.6340932 -60 75 C-68.94125233 66.76237789 -73.69470123 56.28786828 -74.2734375 44.2421875 C-74.6592457 29.82394563 -72.8952756 19.58003589 -63.22265625 8.31640625 C-45.98600697 -9.64727218 -21.34855886 -13.46912231 0 0 Z " fill="#445167" transform="translate(234,186)"/>
<path d="M0 0 C2.64 0 5.28 0 8 0 C8 3.3 8 6.6 8 10 C10.31 10 12.62 10 15 10 C15 6.7 15 3.4 15 0 C17.64 0 20.28 0 23 0 C23 3.3 23 6.6 23 10 C25.31 10 27.62 10 30 10 C30 6.7 30 3.4 30 0 C32.97 0 35.94 0 39 0 C39 3.3 39 6.6 39 10 C40.32 10 41.64 10 43 10 C43 11.65 43 13.3 43 15 C46.3 15 49.6 15 53 15 C53 17.64 53 20.28 53 23 C49.7 23 46.4 23 43 23 C43 25.31 43 27.62 43 30 C46.3 30 49.6 30 53 30 C53 32.64 53 35.28 53 38 C49.7 38 46.4 38 43 38 C43 40.31 43 42.62 43 45 C46.3 45 49.6 45 53 45 C53 47.97 53 50.94 53 54 C49.7 54 46.4 54 43 54 C43 55.32 43 56.64 43 58 C41.35 58 39.7 58 38 58 C38 61.3 38 64.6 38 68 C35.36 68 32.72 68 30 68 C30 64.7 30 61.4 30 58 C27.69 58 25.38 58 23 58 C23 61.3 23 64.6 23 68 C20.36 68 17.72 68 15 68 C15 64.7 15 61.4 15 58 C12.69 58 10.38 58 8 58 C8 61.3 8 64.6 8 68 C5.36 68 2.72 68 0 68 C0 64.7 0 61.4 0 58 C-1.65 58 -3.3 58 -5 58 C-5 56.68 -5 55.36 -5 54 C-8.3 54 -11.6 54 -15 54 C-15 51.03 -15 48.06 -15 45 C-11.7 45 -8.4 45 -5 45 C-5 42.69 -5 40.38 -5 38 C-8.3 38 -11.6 38 -15 38 C-15 35.36 -15 32.72 -15 30 C-11.7 30 -8.4 30 -5 30 C-5 27.69 -5 25.38 -5 23 C-8.3 23 -11.6 23 -15 23 C-15 20.36 -15 17.72 -15 15 C-11.37 15 -7.74 15 -4 15 C-4 13.68 -4 12.36 -4 11 C-2.68 11 -1.36 11 0 11 C0 7.37 0 3.74 0 0 Z " fill="#F8F8F9" transform="translate(188,192)"/>
<path d="M0 0 C10.56 0 21.12 0 32 0 C32 10.56 32 21.12 32 32 C21.44 32 10.88 32 0 32 C0 21.44 0 10.88 0 0 Z " fill="#3E4C63" transform="translate(191,210)"/>
<path d="M0 0 C9.9 0 19.8 0 30 0 C30 9.9 30 19.8 30 30 C20.1 30 10.2 30 0 30 C0 29.67 0 29.34 0 29 C9.24 29 18.48 29 28 29 C28 25.04 28 21.08 28 17 C27.34 17 26.68 17 26 17 C26 16.34 26 15.68 26 15 C26.66 15 27.32 15 28 15 C27.34 13.68 26.68 12.36 26 11 C24.329375 11.2784375 24.329375 11.2784375 22.625 11.5625 C19 12 19 12 17 11 C17.3125 9.0625 17.3125 9.0625 18 7 C18.99 6.67 19.98 6.34 21 6 C21 5.01 21 4.02 21 3 C19.68 3 18.36 3 17 3 C17 4.65 17 6.3 17 8 C14.1875 9.5625 14.1875 9.5625 11 11 C10.01 10.67 9.02 10.34 8 10 C7.3125 7.9375 7.3125 7.9375 7 6 C6.01 6 5.02 6 4 6 C3.67 7.32 3.34 8.64 3 10 C2.01 10 1.02 10 0 10 C0 6.7 0 3.4 0 0 Z " fill="#414F65" transform="translate(193,212)"/>
<path d="M0 0 C1.67542976 0.28604898 3.34385343 0.61781233 5 1 C4.67 2.32 4.34 3.64 4 5 C3.01 5 2.02 5 1 5 C0.67 6.32 0.34 7.64 0 9 C0.9075 9 1.815 9 2.75 9 C5.16666667 9 7.58333333 9 10 9 C10.33 10.32 10.66 11.64 11 13 C8.21176345 14.0326802 7.1322726 14.04509293 4.25 13.0625 C3.5075 12.711875 2.765 12.36125 2 12 C2 13.65 2 15.3 2 17 C3.32 17.66 4.64 18.32 6 19 C5.67 20.65 5.34 22.3 5 24 C3.68 23.67 2.36 23.34 1 23 C0.67 21.35 0.34 19.7 0 18 C-4.14093698 17.79029441 -4.14093698 17.79029441 -8 19 C-8.33 16.03 -8.66 13.06 -9 10 C-11.475 9.01 -11.475 9.01 -14 8 C-13.67 6.35 -13.34 4.7 -13 3 C-11.02 3.495 -11.02 3.495 -9 4 C-8.67 5.32 -8.34 6.64 -8 8 C-5.69 7.34 -3.38 6.68 -1 6 C-1.020625 5.195625 -1.04125 4.39125 -1.0625 3.5625 C-1 1 -1 1 0 0 Z " fill="#F5F6F7" transform="translate(210,214)"/>
<path d="M0 0 C2.64 0 5.28 0 8 0 C8 3.3 8 6.6 8 10 C10.31 10 12.62 10 15 10 C15 6.7 15 3.4 15 0 C17.97 0 20.94 0 24 0 C24 3.3 24 6.6 24 10 C25.32 10.33 26.64 10.66 28 11 C16.45 11 4.9 11 -7 11 C-7 10.67 -7 10.34 -7 10 C-4.69 10 -2.38 10 0 10 C0 6.7 0 3.4 0 0 Z " fill="#E0E2E6" transform="translate(203,192)"/>
<path d="M0 0 C10.56 0 21.12 0 32 0 C32 0.66 32 1.32 32 2 C21.84662589 3.29405748 12.18008861 2.69409695 2 2 C2 11.9 2 21.8 2 32 C1.34 32 0.68 32 0 32 C0 21.44 0 10.88 0 0 Z " fill="#596578" transform="translate(191,210)"/>
<path d="M0 0 C1 4.75 1 4.75 1 7 C1.66 7.66 2.32 8.32 3 9 C1.27119018 9.05449838 -0.45812712 9.09301688 -2.1875 9.125 C-3.15042969 9.14820313 -4.11335937 9.17140625 -5.10546875 9.1953125 C-8.12812778 8.9913544 -10.26769985 8.26874632 -13 7 C-12.67 5.35 -12.34 3.7 -12 2 C-7.82262526 0.40861915 -4.46839215 -0.21278058 0 0 Z " fill="#414F65" transform="translate(210,231)"/>
<path d="M0 0 C0.66 0 1.32 0 2 0 C2 9.9 2 19.8 2 30 C-7.9 30 -17.8 30 -28 30 C-28 29.67 -28 29.34 -28 29 C-18.76 29 -9.52 29 0 29 C0 25.04 0 21.08 0 17 C-0.66 17 -1.32 17 -2 17 C-2 16.34 -2 15.68 -2 15 C-1.34 15 -0.68 15 0 15 C0 10.05 0 5.1 0 0 Z " fill="#47556A" transform="translate(221,212)"/>
<path d="M0 0 C0 2.64 0 5.28 0 8 C-1.47906892 8.02689216 -2.95827483 8.04634621 -4.4375 8.0625 C-5.67306641 8.07990234 -5.67306641 8.07990234 -6.93359375 8.09765625 C-9 8 -9 8 -10 7 C-10.04080783 5.00041636 -10.04254356 2.99954746 -10 1 C-2.25 0 -2.25 0 0 0 Z " fill="#FDFDFD" transform="translate(241,222)"/>
<path d="M0 0 C3.3 0 6.6 0 10 0 C10 2.31 10 4.62 10 7 C6.7 7 3.4 7 0 7 C0 4.69 0 2.38 0 0 Z " fill="#FEFEFE" transform="translate(231,238)"/>
<path d="M0 0 C3.3 0 6.6 0 10 0 C10 2.31 10 4.62 10 7 C6.7 7 3.4 7 0 7 C0 4.69 0 2.38 0 0 Z " fill="#FEFEFE" transform="translate(231,207)"/>
<path d="M0 0 C2.31 0 4.62 0 7 0 C7 2.97 7 5.94 7 9 C4.69 9 2.38 9 0 9 C0 6.03 0 3.06 0 0 Z " fill="#FFFFFF" transform="translate(219,193)"/>
<path d="M0 0 C1.98 0.495 1.98 0.495 4 1 C4.33 2.32 4.66 3.64 5 5 C6.32 5.33 7.64 5.66 9 6 C8.34 6.66 7.68 7.32 7 8 C6.30251417 9.31747324 5.63040043 10.64914193 5 12 C4.9071875 10.824375 4.9071875 10.824375 4.8125 9.625 C4.544375 8.75875 4.27625 7.8925 4 7 C1.52363988 5.62533375 1.52363988 5.62533375 -1 5 C-0.67 3.35 -0.34 1.7 0 0 Z " fill="#DDE0E4" transform="translate(197,217)"/>
<path d="M0 0 C2.97 1.98 2.97 1.98 6 4 C5.67 5.65 5.34 7.3 5 9 C3.68 8.67 2.36 8.34 1 8 C0.814375 6.824375 0.814375 6.824375 0.625 5.625 C0.20882007 2.85942178 0.20882007 2.85942178 -2 1 C-1.34 0.67 -0.68 0.34 0 0 Z " fill="#DEE1E5" transform="translate(210,229)"/>
<path d="M0 0 C0.8353125 0.556875 0.8353125 0.556875 1.6875 1.125 C1.6875 2.115 1.6875 3.105 1.6875 4.125 C-1.10073655 5.1576802 -2.1802274 5.17009293 -5.0625 4.1875 C-5.805 3.836875 -6.5475 3.48625 -7.3125 3.125 C-7.3125 2.465 -7.3125 1.805 -7.3125 1.125 C-2.88173077 -1.09038462 -2.88173077 -1.09038462 0 0 Z " fill="#DBDDE2" transform="translate(219.3125,222.875)"/>
<path d="M0 0 C3.3 0 6.6 0 10 0 C8 2 8 2 5.375 2.125 C4.59125 2.08375 3.8075 2.0425 3 2 C2.67 2.99 2.34 3.98 2 5 C4.64 5 7.28 5 10 5 C10 5.33 10 5.66 10 6 C6.7 6 3.4 6 0 6 C0 4.02 0 2.04 0 0 Z " fill="#37465D" transform="translate(231,215)"/>
<path d="M0 0 C1.67542976 0.28604898 3.34385343 0.61781233 5 1 C4.67 2.32 4.34 3.64 4 5 C3.01 5 2.02 5 1 5 C0.34 6.32 -0.32 7.64 -1 9 C-1.09765625 2.84765625 -1.09765625 2.84765625 -1 1 C-0.67 0.67 -0.34 0.34 0 0 Z " fill="#E0E2E6" transform="translate(210,214)"/>
<path d="M0 0 C1.32 0 2.64 0 4 0 C4 1.65 4 3.3 4 5 C2.68 5.33 1.36 5.66 0 6 C-0.38218767 4.34385343 -0.71395102 2.67542976 -1 1 C-0.67 0.67 -0.34 0.34 0 0 Z " fill="#E6E8EB" transform="translate(198,233)"/>
</svg>
